<svg id="icon" height="512" viewBox="0 0 128 128" width="512" xmlns="http://www.w3.org/2000/svg"><path d="m19.46 13.371h89.081v113.629h-89.081z" fill="#b4835c"/><path d="m108.541 128h-89.081a1 1 0 0 1 -1-1v-113.629a1 1 0 0 1 1-1h89.081a1 1 0 0 1 1 1v113.629a1 1 0 0 1 -1 1zm-88.081-2h87.081v-111.629h-87.081z" fill="#2f3a5a"/><path d="m19.46 13.371h89.081v113.629h-89.081z" fill="#e1b378"/><path d="m108.54 13.377v113.623h-89.081v-4.644h85.173v-108.979z" fill="#bd8d5a"/><path d="m108.541 128h-89.081a1 1 0 0 1 -1-1v-113.629a1 1 0 0 1 1-1h89.081a1 1 0 0 1 1 1v113.629a1 1 0 0 1 -1 1zm-88.081-2h87.081v-111.629h-87.081z" fill="#2f3a5a"/><path d="m27.441 20.588h73.12v97.936h-73.12z" fill="#f0f5f9"/><path d="m100.561 119.523h-73.12a1 1 0 0 1 -1-1v-97.935a1 1 0 0 1 1-1h73.12a1 1 0 0 1 1 1v97.936a1 1 0 0 1 -1 .999zm-72.12-2h71.12v-95.935h-71.12z" fill="#2f3a5a"/><path d="m73.186 10.281a2.021 2.021 0 0 1 -2.019-1.919l-.01-.2a7.157 7.157 0 1 0 -14.315 0 2.021 2.021 0 0 1 -2.019 2.124h-10.431v17.033h39.215v-17.038z" fill="#9297ab"/><path d="m83.61 10.28v17.04h-39.22v-3.27h36.11v-13.77z" fill="#707583"/><path d="m83.607 28.318h-39.215a1 1 0 0 1 -1-1v-17.037a1 1 0 0 1 1-1h11.45v-1.124a8.157 8.157 0 1 1 16.314 0v1.124h11.45a1 1 0 0 1 1 1v17.037a1 1 0 0 1 -.999 1zm-38.215-2h37.215v-15.037h-11.45a1 1 0 0 1 -1-1v-2.124a6.157 6.157 0 1 0 -12.314 0v2.124a1 1 0 0 1 -1 1h-11.451z" fill="#2f3a5a"/><g fill="#9297ab"><path d="m87.8 47.2h-28.292a1 1 0 0 1 0-2h28.292a1 1 0 0 1 0 2z"/><path d="m87.8 53.383h-28.292a1 1 0 0 1 0-2h28.292a1 1 0 0 1 0 2z"/><path d="m87.8 71.124h-28.292a1 1 0 0 1 0-2h28.292a1 1 0 0 1 0 2z"/><path d="m87.8 77.309h-28.292a1 1 0 0 1 0-2h28.292a1 1 0 0 1 0 2z"/><path d="m87.8 95.049h-28.292a1 1 0 0 1 0-2h28.292a1 1 0 0 1 0 2z"/><path d="m87.8 101.234h-28.292a1 1 0 1 1 0-2h28.292a1 1 0 1 1 0 2z"/></g><path d="m39.167 42.709h13.162v13.162h-13.162z" fill="#81dafc"/><path d="m52.33 56.872h-13.163a1 1 0 0 1 -1-1v-13.163a1 1 0 0 1 1-1h13.163a1 1 0 0 1 1 1v13.163a1 1 0 0 1 -1 1zm-12.162-2h11.162v-11.163h-11.163z" fill="#2f3a5a"/><path d="m39.167 66.635h13.162v13.162h-13.162z" fill="#81dafc"/><path d="m52.33 80.8h-13.163a1 1 0 0 1 -1-1v-13.165a1 1 0 0 1 1-1h13.163a1 1 0 0 1 1 1v13.165a1 1 0 0 1 -1 1zm-12.162-2h11.162v-11.165h-11.163z" fill="#2f3a5a"/><path d="m39.167 90.56h13.162v13.162h-13.162z" fill="#81dafc"/><g fill="#2f3a5a"><path d="m52.33 104.723h-13.163a1 1 0 0 1 -1-1v-13.163a1 1 0 0 1 1-1h13.163a1 1 0 0 1 1 1v13.163a1 1 0 0 1 -1 1zm-12.162-2h11.162v-11.163h-11.163z"/><path d="m44.961 51.8a1 1 0 0 1 -.707-.293l-1.447-1.447a1 1 0 0 1 1.414-1.414l.74.74 2.314-2.313a1 1 0 0 1 1.414 1.414l-3.021 3.021a1 1 0 0 1 -.707.292z"/><path d="m44.961 75.727a1 1 0 0 1 -.707-.293l-1.447-1.447a1 1 0 0 1 1.414-1.414l.74.74 2.314-2.313a1 1 0 0 1 1.414 1.414l-3.021 3.021a1 1 0 0 1 -.707.292z"/><path d="m44.961 99.652a1 1 0 0 1 -.707-.293l-1.447-1.447a1 1 0 0 1 1.415-1.412l.74.74 2.314-2.313a1 1 0 0 1 1.414 1.414l-3.021 3.021a1 1 0 0 1 -.708.29z"/></g></svg>