<svg id="icon" height="512" viewBox="0 0 128 128" width="512" xmlns="http://www.w3.org/2000/svg"><path d="m125.051 51.402h-122.102l14.815-27.262h92.472z" fill="#cee7fd"/><path d="m39.736 24.14h22.91v27.262h-22.91z" fill="#b9ddfc"/><path d="m110.236 24.14-24.472 27.262-23.118-27.262z" fill="#cee7fd"/><path d="m62.646 24.14-23.118 27.262-21.764-27.262z" fill="#cee7fd"/><g fill="#b9ddfc"><path d="m86.664 24.14v26.26l23.572-26.26z"/><path d="m39.922 24.14h-22.158l21.764 27.262.394-.464z"/><path d="m125.051 51.402-61.051 76.598-61.051-76.598z"/></g><path d="m105.607 51.402-41.607 76.598-41.607-76.598z" fill="#cee7fd"/><g fill="#2f3a5a"><path d="m125.051 52.4h-122.102a1 1 0 0 1 -.878-1.478l14.815-27.26a1 1 0 0 1 .878-.522h92.472a1 1 0 0 1 .878.522l14.815 27.263a1 1 0 0 1 -.878 1.478zm-120.42-2h118.738l-13.728-25.26h-91.282z"/><path d="m85.764 52.4h-.014a1 1 0 0 1 -.75-.351l-23.116-27.262a1 1 0 0 1 .763-1.647h47.589a1 1 0 0 1 .744 1.668l-24.472 27.262a1 1 0 0 1 -.744.33zm-20.958-27.26 20.98 24.742 22.209-24.742z"/><path d="m39.528 52.4h-.015a1 1 0 0 1 -.767-.376l-21.764-27.26a1 1 0 0 1 .782-1.624h44.882a1 1 0 0 1 .763 1.647l-23.118 27.262a1 1 0 0 1 -.763.351zm-19.686-27.26 19.71 24.689 20.935-24.689z"/></g><path d="m125.051 51.402-61.051 76.598-61.051-76.598z" fill="none"/><path d="m62.646 51.402 1.354 76.598-24.472-76.598z" fill="#b9ddfc"/><path d="m64 129a1 1 0 0 1 -.953-.7l-24.471-76.6a1 1 0 0 1 .953-1.3h46.235a1 1 0 0 1 .962 1.273l-21.765 76.6a1 1 0 0 1 -.946.727zm-23.1-76.6 23.046 72.136 20.494-72.136z" fill="#2f3a5a"/><path d="m64 129a1 1 0 0 1 -.782-.377l-61.05-76.6a1 1 0 0 1 .781-1.623h122.1a1 1 0 0 1 .782 1.623l-61.051 76.6a1 1 0 0 1 -.78.377zm-58.975-76.6 58.975 74 58.975-74z" fill="#2f3a5a"/></svg>