<svg id="icon" height="512" viewBox="0 0 128 128" width="512" xmlns="http://www.w3.org/2000/svg"><path d="m5.137 41.545a188.552 188.552 0 0 0 35.21 48.255 188.552 188.552 0 0 0 48.253 35.207c.043-.085 8.313 5 14.492-.755l13.751-13.752a5.894 5.894 0 0 0 0-8.335l-14.95-14.95a5.894 5.894 0 0 0 -6.3-1.328l-17.711 6.862a8.866 8.866 0 0 1 -8.615-1.24 174.813 174.813 0 0 1 -16.333-14.3 174.813 174.813 0 0 1 -14.3-16.333 8.866 8.866 0 0 1 -1.24-8.615l6.862-17.715a5.894 5.894 0 0 0 -1.328-6.3l-14.949-14.946a5.894 5.894 0 0 0 -8.335 0l-13.752 13.753c-5.755 6.179-.67 14.447-.755 14.492z" fill="#81dafc"/><path d="m79.746 92.027 15.854-6.14a5.871 5.871 0 0 1 4.5.1l-14.841 5.752a8.831 8.831 0 0 1 -5.513.288z" fill="#5fc4f8"/><path d="m5.89 27.058 13.757-13.758a5.889 5.889 0 0 1 7.225-.863l-13.6 13.6c-5.742 6.17-.679 14.421-.753 14.495a188.359 188.359 0 0 0 35.211 48.248 188.359 188.359 0 0 0 48.246 35.212 19.636 19.636 0 0 0 5.041 1.764c-5.786 3.2-12.355-.812-12.421-.746a188.661 188.661 0 0 1 -48.247-35.21 188.773 188.773 0 0 1 -35.219-48.255c.07-.074-4.982-8.317.76-14.487z" fill="#5fc4f8"/><path d="m96.025 128.012a17.243 17.243 0 0 1 -7.629-2l-.123-.06a.991.991 0 0 1 -.129-.055 189.267 189.267 0 0 1 -48.507-35.397 189.238 189.238 0 0 1 -35.391-48.5 1.083 1.083 0 0 1 -.056-.13l-.06-.123c-2.985-6-2.619-11.458 1.03-15.375l13.778-13.778a6.893 6.893 0 0 1 9.749 0l14.949 14.949a6.9 6.9 0 0 1 1.554 7.365l-6.862 17.716a7.905 7.905 0 0 0 1.1 7.643 174.532 174.532 0 0 0 14.218 16.24 174.54 174.54 0 0 0 16.232 14.21 7.906 7.906 0 0 0 7.643 1.1l17.715-6.862a6.9 6.9 0 0 1 7.365 1.554l14.949 14.949a6.9 6.9 0 0 1 0 9.75l-13.75 13.751a11.114 11.114 0 0 1 -7.775 3.053zm-6.975-3.893a2.368 2.368 0 0 1 .236.1c3.012 1.5 8.718 3.4 13.122-.7l13.727-13.727a4.894 4.894 0 0 0 0-6.921l-14.948-14.949a4.895 4.895 0 0 0 -5.229-1.1l-17.715 6.86a9.916 9.916 0 0 1 -9.586-1.38 176.507 176.507 0 0 1 -16.427-14.382 176.685 176.685 0 0 1 -14.387-16.432 9.917 9.917 0 0 1 -1.38-9.587l6.861-17.715a4.9 4.9 0 0 0 -1.1-5.229l-14.952-14.949a4.893 4.893 0 0 0 -6.921 0l-13.751 13.752c-4.077 4.378-2.177 10.085-.679 13.1.041.083.075.162.1.237a187.3 187.3 0 0 0 35.023 48 187.276 187.276 0 0 0 48 35.028z" fill="#2f3a5a"/><path d="m113.874 113.469 2.969-2.969a5.894 5.894 0 0 0 0-8.335l-14.95-14.95a5.894 5.894 0 0 0 -6.3-1.328l-6.708 2.6z" fill="#81dafc"/><path d="m113.874 114.469a1 1 0 0 1 -.707-.293l-24.984-24.984a1 1 0 0 1 .346-1.64l6.707-2.6a6.9 6.9 0 0 1 7.365 1.554l14.949 14.949a6.9 6.9 0 0 1 0 9.75l-2.969 2.969a1 1 0 0 1 -.707.295zm-23.192-25.606 23.192 23.192 2.262-2.262a4.9 4.9 0 0 0 0-6.921l-14.949-14.95a4.895 4.895 0 0 0 -5.229-1.1z" fill="#2f3a5a"/><path d="m41.659 41.255 2.6-6.708a5.894 5.894 0 0 0 -1.328-6.3l-14.952-14.947a5.894 5.894 0 0 0 -8.335 0l-2.969 2.969z" fill="#81dafc"/><path d="m41.659 42.255a1 1 0 0 1 -.707-.293l-24.984-24.984a1 1 0 0 1 0-1.414l2.97-2.969a6.9 6.9 0 0 1 9.749 0l14.949 14.948a6.9 6.9 0 0 1 1.554 7.365l-2.6 6.708a1 1 0 0 1 -.727.617.985.985 0 0 1 -.204.022zm-23.57-25.984 23.192 23.191 2.043-5.276a4.9 4.9 0 0 0 -1.1-5.229l-14.952-14.949a4.9 4.9 0 0 0 -6.921 0z" fill="#2f3a5a"/><path d="m93.271 1a31.577 31.577 0 0 0 -24.54 51.454l-5.944 12.738 12.847-6.41a31.583 31.583 0 1 0 17.637-57.782z" fill="#f0f5f9"/><path d="m124.856 32.578a31.594 31.594 0 0 1 -49.223 26.209l-12.848 6.413 3.246-6.951 5.4-2.693a31.583 31.583 0 0 0 38.938-49.52 31.528 31.528 0 0 1 14.487 26.542z" fill="#d9e2e9"/><path d="m62.786 66.192a1 1 0 0 1 -.906-1.423l5.684-12.178a32.527 32.527 0 1 1 8 7.343l-12.332 6.153a1 1 0 0 1 -.446.105zm12.848-8.41a1 1 0 0 1 .56.171 30.637 30.637 0 1 0 -6.686-6.129 1 1 0 0 1 .13 1.053l-4.738 10.141 10.283-5.13a1 1 0 0 1 .451-.106z" fill="#2f3a5a"/><g fill="#c1cdd3"><path d="m110.556 26.672h-31.293a1 1 0 0 1 0-2h31.293a1 1 0 0 1 0 2z"/><path d="m110.556 33.239h-31.293a1 1 0 0 1 0-2h31.293a1 1 0 0 1 0 2z"/><path d="m110.556 39.805h-31.293a1 1 0 0 1 0-2h31.293a1 1 0 0 1 0 2z"/></g></svg>