<svg id="color_icon" height="512" viewBox="0 0 74 74" width="512" xmlns="http://www.w3.org/2000/svg" data-name="color icon"><path d="m5.11 28.677h7.848v42.322h-7.848z" fill="#b1dcc1"/><path d="m9.841 28.67h3.115v42.33h-3.115z" fill="#9dceb2"/><circle cx="9.035" cy="16.537" fill="#b6d2dd" r="4.676"/><circle cx="27.678" cy="28.67" fill="#bbbbcd" r="4.676"/><circle cx="46.322" cy="7.676" fill="#eeefee" r="4.676"/><circle cx="64.965" cy="19.319" fill="#fed19a" r="4.676"/><path d="m13.712 16.54a4.625 4.625 0 0 1 -2.159 3.934 4.435 4.435 0 0 0 .5-2.074 4.668 4.668 0 0 0 -4.673-4.673 4.62 4.62 0 0 0 -2.515.739 4.666 4.666 0 0 1 8.85 2.074z" fill="#acc6cc"/><g opacity=".5"><path d="m32.348 28.67a4.66 4.66 0 0 1 -2.13 3.921 4.585 4.585 0 0 0 .482-2.06 4.672 4.672 0 0 0 -7.215-3.92 4.67 4.67 0 0 1 8.863 2.059z" fill="#9a9eaf"/></g><path d="m51 7.676a4.625 4.625 0 0 1 -2.159 3.935 4.435 4.435 0 0 0 .5-2.074 4.668 4.668 0 0 0 -4.673-4.674 4.62 4.62 0 0 0 -2.515.739 4.667 4.667 0 0 1 8.847 2.074z" fill="#dbd8dd"/><path d="m69.635 19.324a4.653 4.653 0 0 1 -2.13 3.906 4.484 4.484 0 0 0 .483-2.046 4.672 4.672 0 0 0 -7.216-3.92 4.666 4.666 0 0 1 8.863 2.06z" fill="#f4bb87"/><g fill="#323c6b"><path d="m23.754 26.628a.5.5 0 0 1 -.273-.081l-10.795-7.047a.5.5 0 0 1 .546-.838l10.8 7.046a.5.5 0 0 1 -.274.919z"/><path d="m61 17.352a.493.493 0 0 1 -.265-.076l-10.711-6.7a.5.5 0 1 1 .531-.847l10.71 6.7a.5.5 0 0 1 -.265.924z"/><path d="m30.771 25.676a.5.5 0 0 1 -.373-.833l12.457-14a.5.5 0 0 1 .748.665l-12.458 14a.5.5 0 0 1 -.374.168z"/><path d="m9.035 21.713a5.176 5.176 0 1 1 5.175-5.176 5.182 5.182 0 0 1 -5.175 5.176zm0-9.352a4.176 4.176 0 1 0 4.175 4.176 4.18 4.18 0 0 0 -4.175-4.176z"/><path d="m46.322 12.852a5.176 5.176 0 1 1 5.178-5.176 5.182 5.182 0 0 1 -5.178 5.176zm0-9.352a4.176 4.176 0 1 0 4.178 4.176 4.18 4.18 0 0 0 -4.178-4.176z"/><path d="m64.965 24.5a5.176 5.176 0 1 1 5.176-5.176 5.181 5.181 0 0 1 -5.176 5.176zm0-9.352a4.176 4.176 0 1 0 4.176 4.176 4.18 4.18 0 0 0 -4.176-4.181z"/><path d="m12.959 71.5h-7.849a.5.5 0 0 1 -.5-.5v-42.323a.5.5 0 0 1 .5-.5h7.849a.5.5 0 0 1 .5.5v42.323a.5.5 0 0 1 -.5.5zm-7.349-1h6.849v-41.323h-6.849z"/></g><path d="m7.75 55.138a.65.65 0 0 1 -.65-.65v-9.3a.65.65 0 1 1 1.3 0v9.3a.65.65 0 0 1 -.65.65z" fill="#fff"/><path d="m7.75 58.962a.65.65 0 0 1 -.65-.65v-1.291a.65.65 0 0 1 1.3 0v1.291a.65.65 0 0 1 -.65.65z" fill="#fff"/><path d="m23.71 38.707h7.848v32.292h-7.848z" fill="#b1dcc1"/><path d="m28.44 38.702h3.115v32.298h-3.115z" fill="#9dceb2"/><path d="m31.558 71.5h-7.849a.5.5 0 0 1 -.5-.5v-32.293a.5.5 0 0 1 .5-.5h7.849a.5.5 0 0 1 .5.5v32.293a.5.5 0 0 1 -.5.5zm-7.349-1h6.849v-31.293h-6.849z" fill="#323c6b"/><path d="m42.65 21.22h7.848v49.779h-7.848z" fill="#b1dcc1"/><path d="m47.38 21.213h3.115v49.787h-3.115z" fill="#9dceb2"/><path d="m50.5 71.5h-7.85a.5.5 0 0 1 -.5-.5v-49.78a.5.5 0 0 1 .5-.5h7.85a.5.5 0 0 1 .5.5v49.78a.5.5 0 0 1 -.5.5zm-7.349-1h6.849v-48.78h-6.85z" fill="#323c6b"/><path d="m61.041 29.628h7.848v41.371h-7.848z" fill="#b1dcc1"/><path d="m65.772 29.622h3.115v41.378h-3.115z" fill="#9dceb2"/><path d="m68.89 71.5h-7.849a.5.5 0 0 1 -.5-.5v-41.372a.5.5 0 0 1 .5-.5h7.849a.5.5 0 0 1 .5.5v41.372a.5.5 0 0 1 -.5.5zm-7.349-1h6.849v-40.372h-6.849z" fill="#323c6b"/><path d="m27.678 33.846a5.176 5.176 0 1 1 5.176-5.176 5.182 5.182 0 0 1 -5.176 5.176zm0-9.351a4.176 4.176 0 1 0 4.176 4.175 4.18 4.18 0 0 0 -4.176-4.17z" fill="#323c6b"/><path d="m22.917 23.161a.5.5 0 0 1 -.312-.891 8.1 8.1 0 0 1 4.883-1.77.507.507 0 0 1 .512.489.5.5 0 0 1 -.488.511 7.1 7.1 0 0 0 -4.284 1.551.507.507 0 0 1 -.311.11z" fill="#323c6b"/><path d="m30.875 22.207a.487.487 0 0 1 -.21-.047 7.093 7.093 0 0 0 -1.206-.432.5.5 0 0 1 .249-.969 8.088 8.088 0 0 1 1.377.494.5.5 0 0 1 -.21.954z" fill="#323c6b"/><path d="m53.5 59.25a.5.5 0 0 1 -.5-.5v-2.417a.5.5 0 0 1 1 0v2.417a.5.5 0 0 1 -.5.5z" fill="#323c6b"/><path d="m53.5 54.25a.5.5 0 0 1 -.5-.5v-13.167a.5.5 0 0 1 1 0v13.167a.5.5 0 0 1 -.5.5z" fill="#323c6b"/></svg>